<svg width="31" height="28" viewBox="0 0 31 28" fill="none" xmlns="http://www.w3.org/2000/svg">
<path d="M12.75 25.5C12.75 25.9203 12.6254 26.3311 12.3919 26.6806C12.1584 27.03 11.8265 27.3024 11.4382 27.4632C11.0499 27.6241 10.6226 27.6662 10.2104 27.5842C9.79822 27.5022 9.41959 27.2998 9.1224 27.0026C8.82521 26.7054 8.62282 26.3268 8.54083 25.9146C8.45884 25.5024 8.50092 25.0751 8.66176 24.6868C8.82259 24.2985 9.09496 23.9666 9.44441 23.7331C9.79387 23.4996 10.2047 23.375 10.625 23.375C11.1886 23.375 11.7291 23.5989 12.1276 23.9974C12.5261 24.3959 12.75 24.9364 12.75 25.5ZM24.4375 23.375C24.0172 23.375 23.6064 23.4996 23.2569 23.7331C22.9075 23.9666 22.6351 24.2985 22.4743 24.6868C22.3134 25.0751 22.2713 25.5024 22.3533 25.9146C22.4353 26.3268 22.6377 26.7054 22.9349 27.0026C23.2321 27.2998 23.6107 27.5022 24.0229 27.5842C24.4351 27.6662 24.8624 27.6241 25.2507 27.4632C25.639 27.3024 25.9709 27.03 26.2044 26.6806C26.4379 26.3311 26.5625 25.9203 26.5625 25.5C26.5625 24.9364 26.3386 24.3959 25.9401 23.9974C25.5416 23.5989 25.0011 23.375 24.4375 23.375ZM30.4672 6.66719L26.9609 18.9391C26.7684 19.6043 26.3653 20.1892 25.8121 20.6059C25.2589 21.0225 24.5855 21.2486 23.893 21.25H11.1695C10.477 21.2486 9.80357 21.0225 9.25039 20.6059C8.69721 20.1892 8.2941 19.6043 8.10156 18.9391L4.59531 6.68047V6.65391L3.29375 2.125H1.0625C0.780707 2.125 0.510456 2.01306 0.311199 1.8138C0.111942 1.61454 0 1.34429 0 1.0625C0 0.780707 0.111942 0.510456 0.311199 0.311199C0.510456 0.111942 0.780707 0 1.0625 0H3.29375C3.75527 0.00167302 4.20387 0.152626 4.57251 0.430308C4.94116 0.707989 5.21007 1.09749 5.33906 1.54062L6.41484 5.3125H29.4445C29.6091 5.31233 29.7715 5.35039 29.9188 5.42368C30.0662 5.49697 30.1945 5.60349 30.2937 5.73484C30.3928 5.86619 30.4601 6.01878 30.4902 6.18058C30.5203 6.34238 30.5124 6.50896 30.4672 6.66719ZM28.0367 7.4375H7.02578L10.1469 18.3547C10.2104 18.5768 10.3446 18.7722 10.5291 18.9112C10.7137 19.0502 10.9385 19.1252 11.1695 19.125H23.893C24.124 19.1252 24.3488 19.0502 24.5334 18.9112C24.7179 18.7722 24.8521 18.5768 24.9156 18.3547L28.0367 7.4375Z" fill="#BDBDBD"/>
</svg>
